<svg width="91" height="91" viewBox="0 0 91 91" fill="none" xmlns="http://www.w3.org/2000/svg">
<g clip-path="url(#clip0_6_6)">
<path d="M75.8333 30.3334H15.1667V22.75H75.8333V30.3334ZM68.25 7.58337H22.75V15.1667H68.25V7.58337ZM39.0997 80.0042L26.5872 67.4917L31.8955 62.1834L39.0997 69.3875L59.1955 49.2917L64.5038 54.6L39.0997 80.0042Z" fill="black"/>
<path d="M83.4167 37.9166H7.58333C5.57211 37.9166 3.64326 38.7156 2.22111 40.1377C0.798956 41.5599 0 43.4887 0 45.5L0 83.4166C0 85.4278 0.798956 87.3567 2.22111 88.7789C3.64326 90.201 5.57211 91 7.58333 91H83.4167C85.4279 91 87.3567 90.201 88.7789 88.7789C90.201 87.3567 91 85.4278 91 83.4166V45.5C91 43.4887 90.201 41.5599 88.7789 40.1377C87.3567 38.7156 85.4279 37.9166 83.4167 37.9166ZM83.4167 83.4166H7.58333V45.5H83.4167V83.4166Z" fill="black"/>
</g>
<defs>
<clipPath id="clip0_6_6">
<rect width="91" height="91" fill="white"/>
</clipPath>
</defs>
</svg>
