<svg width="112" height="112" viewBox="0 0 112 112" fill="none" xmlns="http://www.w3.org/2000/svg">
<path d="M9.33334 93.3333V88.6667C9.33334 80.0029 12.775 71.694 18.9012 65.5678C25.0274 59.4417 33.3363 56 42 56" stroke="black" stroke-width="1.5" stroke-linecap="round" stroke-linejoin="round"/>
<path d="M73.752 57.4653C74.4604 56.6899 75.3225 56.0707 76.2835 55.647C77.2445 55.2233 78.2831 55.0045 79.3334 55.0045C80.3836 55.0045 81.4223 55.2233 82.3832 55.647C83.3442 56.0707 84.2063 56.6899 84.9147 57.4653C86.4314 59.1266 88.6014 60.0273 90.8507 59.9199C91.9003 59.8722 92.9484 60.0437 93.928 60.4236C94.9076 60.8035 95.7973 61.3834 96.5402 62.1264C97.2832 62.8693 97.8631 63.759 98.243 64.7386C98.6229 65.7183 98.7945 66.7663 98.7467 67.8159C98.6394 70.0606 99.54 72.2353 101.201 73.7519C104.491 76.7479 104.491 81.9186 101.201 84.9146C99.54 86.4313 98.6394 88.6013 98.7467 90.8506C98.7945 91.9002 98.6229 92.9483 98.243 93.9279C97.8631 94.9075 97.2832 95.7972 96.5402 96.5402C95.7973 97.2831 94.9076 97.863 93.928 98.243C92.9484 98.6229 91.9003 98.7944 90.8507 98.7466C89.7417 98.6948 88.6349 98.8879 87.609 99.3121C86.5831 99.7364 85.6632 100.381 84.9147 101.201C84.2063 101.977 83.3442 102.596 82.3832 103.02C81.4223 103.443 80.3836 103.662 79.3334 103.662C78.2831 103.662 77.2445 103.443 76.2835 103.02C75.3225 102.596 74.4604 101.977 73.752 101.201C73.0035 100.381 72.0836 99.7364 71.0577 99.3121C70.0318 98.8879 68.925 98.6948 67.816 98.7466C66.7664 98.7944 65.7183 98.6229 64.7387 98.243C63.7591 97.863 62.8694 97.2831 62.1265 96.5402C61.3835 95.7972 60.8036 94.9075 60.4237 93.9279C60.0438 92.9483 59.8722 91.9002 59.92 90.8506C59.9712 89.7413 59.7774 88.6343 59.3524 87.6083C58.9273 86.5824 58.2814 85.6627 57.4607 84.9146C56.6853 84.2062 56.0661 83.3441 55.6424 82.3831C55.2188 81.4222 54.9999 80.3835 54.9999 79.3333C54.9999 78.2831 55.2188 77.2444 55.6424 76.2834C56.0661 75.3225 56.6853 74.4603 57.4607 73.7519C59.1267 72.2353 60.0274 70.0653 59.92 67.8159C59.8722 66.7663 60.0438 65.7183 60.4237 64.7386C60.8036 63.759 61.3835 62.8693 62.1265 62.1264C62.8694 61.3834 63.7591 60.8035 64.7387 60.4236C65.7183 60.0437 66.7664 59.8722 67.816 59.9199C70.0607 60.0273 72.2354 59.1266 73.752 57.4606V57.4653Z" stroke="black" stroke-width="1.5"/>
<path d="M71.6987 79.3333L76.7853 84.42L86.968 74.2466M42 56C46.9507 56 51.6987 54.0333 55.1993 50.5326C58.7 47.0319 60.6667 42.284 60.6667 37.3333C60.6667 32.3826 58.7 27.6346 55.1993 24.134C51.6987 20.6333 46.9507 18.6666 42 18.6666C37.0493 18.6666 32.3014 20.6333 28.8007 24.134C25.3 27.6346 23.3333 32.3826 23.3333 37.3333C23.3333 42.284 25.3 47.0319 28.8007 50.5326C32.3014 54.0333 37.0493 56 42 56Z" stroke="black" stroke-width="1.5" stroke-linecap="round" stroke-linejoin="round"/>
</svg>
