<svg width="88" height="88" viewBox="0 0 88 88" fill="none" xmlns="http://www.w3.org/2000/svg">
<path d="M40.3333 73.3334V80.6667H11C6.96667 80.6667 3.66667 77.3667 3.66667 73.3334V14.6667C3.66667 10.6334 6.96667 7.33337 11 7.33337H77C81.0333 7.33337 84.3333 10.6334 84.3333 14.6667V44.3667L83.6 43.6334C81.7667 41.8 79.5667 40.7 77 40.7V22H11V73.3334H40.3333ZM78.4667 48.7667L83.2333 53.5334C83.9667 54.2667 83.9667 55.7334 83.2333 56.4667L79.5667 60.1334L71.8667 52.4334L75.5333 48.7667C75.9 48.4 76.2667 48.0334 77 48.0334C77.7333 48.0334 78.1 48.4 78.4667 48.7667ZM77.3667 61.9667L55.3667 84.3334H47.6667V76.6334L70.0333 54.2667L77.3667 61.9667Z" fill="black"/>
</svg>
