<svg width="114" height="114" viewBox="0 0 114 114" fill="none" xmlns="http://www.w3.org/2000/svg">
<path d="M79.9425 20.1875H34.0575C31.5163 20.1875 29.4025 20.1875 27.6687 20.33C25.8637 20.4725 24.1727 20.7955 22.572 21.6125C20.1136 22.8649 18.1149 24.8636 16.8625 27.322C16.435 28.1627 16.264 29.203 16.169 29.8205C16.0406 30.7351 15.9455 31.654 15.884 32.5755C15.732 34.618 15.6322 37.1545 15.5657 39.748C15.4375 44.935 15.4375 50.5305 15.4375 53.1905V53.2C15.4375 54.1448 15.8128 55.051 16.4809 55.7191C17.149 56.3872 18.0552 56.7625 19 56.7625C19.9448 56.7625 20.851 56.3872 21.5191 55.7191C22.1872 55.051 22.5625 54.1448 22.5625 53.2C22.5625 51.87 22.5625 49.837 22.5767 47.5H91.4375V70.3C91.4375 73.017 91.4375 74.8457 91.3187 76.247C91.2095 77.615 91.01 78.2657 90.7915 78.6932C90.2219 79.8123 89.3123 80.7219 88.1932 81.2915C87.7657 81.51 87.115 81.7095 85.747 81.8188C84.3457 81.9328 82.517 81.9375 79.8 81.9375H57C56.0552 81.9375 55.149 82.3128 54.4809 82.9809C53.8128 83.649 53.4375 84.5552 53.4375 85.5C53.4375 86.4448 53.8128 87.351 54.4809 88.0191C55.149 88.6872 56.0552 89.0625 57 89.0625H79.9425C82.4837 89.0625 84.5975 89.0625 86.3312 88.92C88.1362 88.7775 89.8272 88.4545 91.428 87.6375C93.8857 86.3863 95.8843 84.3894 97.1375 81.9328C97.9545 80.3273 98.2775 78.6362 98.42 76.8312C98.5625 75.0975 98.5625 72.9838 98.5625 70.4473V38.8075C98.5625 36.2663 98.5625 34.1525 98.42 32.4187C98.2775 30.6137 97.9545 28.9227 97.1375 27.322C95.8875 24.8651 93.8923 22.8665 91.4375 21.6125C89.832 20.7955 88.141 20.4725 86.336 20.33C84.6022 20.1875 82.4837 20.1875 79.9425 20.1875ZM91.4375 38H22.7478C22.8047 36.176 22.8903 34.4897 22.9853 33.1027C23.0613 32.1591 23.1388 31.4149 23.218 30.8703C23.2592 30.6138 23.2877 30.4491 23.3035 30.3763C23.8777 29.3384 24.7496 28.4963 25.8068 27.9585C26.2343 27.74 26.885 27.5405 28.2483 27.4313C29.6543 27.3173 31.4782 27.3125 34.2 27.3125H79.8C82.517 27.3125 84.3457 27.3125 85.747 27.4313C87.115 27.5405 87.7657 27.74 88.1932 27.9585C89.3142 28.5285 90.2215 29.4358 90.7915 30.5568C91.01 30.9843 91.2095 31.635 91.3187 32.9983C91.4185 34.2332 91.4327 35.796 91.4375 38Z" fill="black"/>
<path d="M44.2415 75.4158L40.8215 78.7408C42.9685 82.7925 42.294 87.8845 38.7838 91.2855L33.3308 96.577C31.2008 98.6124 28.3681 99.7483 25.422 99.7483C22.4759 99.7483 19.6432 98.6124 17.5133 96.577C16.483 95.5925 15.6629 94.4093 15.1027 93.099C14.5424 91.7887 14.2535 90.3784 14.2535 88.9533C14.2535 87.5282 14.5424 86.1179 15.1027 84.8076C15.6629 83.4973 16.483 82.3141 17.5133 81.3295L20.9333 78.014C19.8608 75.9859 19.479 73.6632 19.8459 71.3985C20.2128 69.1337 21.3083 67.0504 22.9663 65.4645L28.4192 60.173C30.5492 58.1377 33.3819 57.0018 36.328 57.0018C39.2741 57.0018 42.1068 58.1377 44.2367 60.173C45.267 61.1576 46.0871 62.3408 46.6473 63.6511C47.2076 64.9614 47.4965 66.3717 47.4965 67.7968C47.4965 69.2219 47.2076 70.6322 46.6473 71.9425C46.0871 73.2528 45.267 74.436 44.2367 75.4205M41.1445 72.523C41.7813 71.9125 42.288 71.1796 42.6342 70.3682C42.9803 69.5567 43.1588 68.6837 43.1588 67.8015C43.1588 66.9194 42.9803 66.0463 42.6342 65.2349C42.288 64.4235 41.7813 63.6905 41.1445 63.08C39.8486 61.8361 38.1219 61.1415 36.3256 61.1415C34.5293 61.1415 32.8026 61.8361 31.5068 63.08L26.049 68.3715C25.1858 69.2017 24.5664 70.2524 24.2583 71.4097C23.9501 72.567 23.9649 73.7866 24.301 74.936C26.349 73.5121 28.8046 72.7931 31.2972 72.8873C33.7898 72.9816 36.1841 73.884 38.1187 75.4585L41.1445 72.523ZM35.0265 78.375C33.8248 77.4864 32.3696 77.0068 30.875 77.0068C29.3804 77.0068 27.9252 77.4864 26.7235 78.375C27.9252 79.2637 29.3804 79.7432 30.875 79.7432C32.3696 79.7432 33.8248 79.2637 35.0265 78.375ZM20.6007 84.2318C19.964 84.8423 19.4572 85.5753 19.1111 86.3867C18.7649 87.1981 18.5865 88.0711 18.5865 88.9533C18.5865 89.8354 18.7649 90.7085 19.1111 91.5199C19.4572 92.3313 19.964 93.0643 20.6007 93.6748C21.8966 94.9187 23.6233 95.6133 25.4196 95.6133C27.2159 95.6133 28.9426 94.9187 30.2385 93.6748L35.6962 88.3833C37.525 86.6115 38.1092 84.0798 37.4443 81.8188C35.3962 83.2427 32.9406 83.9618 30.448 83.8675C27.9554 83.7733 25.5611 82.8708 23.6265 81.2963L20.6007 84.2318ZM66.5 61.75C65.2402 61.75 64.032 62.2505 63.1412 63.1413C62.2504 64.0321 61.75 65.2403 61.75 66.5C61.75 67.7598 62.2504 68.968 63.1412 69.8588C64.032 70.7496 65.2402 71.25 66.5 71.25H80.75C82.0098 71.25 83.218 70.7496 84.1088 69.8588C84.9996 68.968 85.5 67.7598 85.5 66.5C85.5 65.2403 84.9996 64.0321 84.1088 63.1413C83.218 62.2505 82.0098 61.75 80.75 61.75H66.5Z" fill="black"/>
</svg>
