<svg width="24" height="24" viewBox="0 0 24 24" fill="none" xmlns="http://www.w3.org/2000/svg">
<path d="M10.155 14.7728L10.146 14.7518C10.0108 14.7148 9.87677 14.6738 9.74403 14.6288L9.73403 14.6248C8.35259 14.1522 7.15351 13.2594 6.30465 12.0714C5.45579 10.8835 4.99963 9.45985 5.00003 7.9998C4.99958 6.2079 5.68633 4.48407 6.91882 3.18336C8.15131 1.88265 9.83568 1.10411 11.625 1.00811C13.4143 0.912106 15.1723 1.50595 16.5369 2.66732C17.9015 3.82869 18.7687 5.46914 18.96 7.2508C19.004 7.6628 18.664 7.9998 18.25 7.9998C17.836 7.9998 17.505 7.6618 17.45 7.2518C17.317 6.28406 16.9287 5.36921 16.325 4.60124C15.7214 3.83328 14.9241 3.23991 14.0151 2.88212C13.1062 2.52433 12.1184 2.41503 11.1532 2.56545C10.188 2.71586 9.2803 3.12057 8.52333 3.73798C7.76636 4.35539 7.18745 5.16323 6.84609 6.07847C6.50473 6.99371 6.41323 7.98334 6.58101 8.94565C6.74878 9.90797 7.16977 10.8083 7.80071 11.554C8.43165 12.2997 9.24979 12.864 10.171 13.1888C10.3566 12.7693 10.6807 12.4264 11.0891 12.2175C11.4974 12.0085 11.9652 11.9463 12.414 12.0413C12.8627 12.1362 13.2652 12.3825 13.554 12.7389C13.8427 13.0953 14.0002 13.5401 14 13.9988C14 14.5968 13.738 15.1328 13.323 15.4988C12.9578 15.8214 12.4873 15.9995 12 15.9998C11.6055 16.0012 11.2195 15.8853 10.891 15.6668C10.5625 15.4484 10.3063 15.1372 10.155 14.7728ZM7.99703 15.4998C7.25999 15.1059 6.58507 14.6056 5.99403 14.0148C5.44617 14.0785 4.9408 14.3413 4.57393 14.7531C4.20707 15.165 4.00426 15.6972 4.00403 16.2488V16.8268C4.00403 17.7188 4.32203 18.5828 4.90203 19.2618C6.46803 21.0958 8.85403 22.0018 12 22.0018C15.146 22.0018 17.533 21.0958 19.102 19.2618C19.6834 18.5825 20.0029 17.7179 20.003 16.8238V16.2488C20.003 15.6524 19.7663 15.0804 19.3447 14.6585C18.9232 14.2366 18.3514 13.9993 17.755 13.9988H15.5C15.5 14.5368 15.38 15.0448 15.163 15.4988H17.755C17.9536 15.4993 18.1438 15.5786 18.2841 15.7192C18.4243 15.8598 18.503 16.0502 18.503 16.2488V16.8238C18.5032 17.3602 18.3117 17.8791 17.963 18.2868C16.706 19.7548 14.739 20.5008 12 20.5008C9.26103 20.5008 7.29603 19.7548 6.04303 18.2878C5.6946 17.8804 5.50311 17.3619 5.50303 16.8258V16.2488C5.50303 16.0499 5.58205 15.8591 5.7227 15.7185C5.86335 15.5778 6.05412 15.4988 6.25303 15.4988L7.99703 15.4998ZM8.00003 7.9998C8.00021 7.30985 8.17885 6.63167 8.5186 6.03117C8.85834 5.43067 9.34764 4.92826 9.93895 4.57274C10.5303 4.21723 11.2035 4.02072 11.8932 4.00228C12.5829 3.98385 13.2656 4.14413 13.8751 4.46755C14.4845 4.79097 14.9999 5.26653 15.3713 5.84803C15.7426 6.42953 15.9572 7.09719 15.9943 7.78615C16.0313 8.4751 15.8895 9.16192 15.5826 9.77987C15.2758 10.3978 14.8143 10.9259 14.243 11.3128C13.6137 10.7875 12.8198 10.4997 12 10.4998C12.6631 10.4998 13.299 10.2364 13.7678 9.76756C14.2366 9.29872 14.5 8.66284 14.5 7.9998C14.5 7.33675 14.2366 6.70087 13.7678 6.23203C13.299 5.76319 12.6631 5.4998 12 5.4998C11.337 5.4998 10.7011 5.76319 10.2323 6.23203C9.76342 6.70087 9.50003 7.33675 9.50003 7.9998C9.50003 8.66284 9.76342 9.29872 10.2323 9.76756C10.7011 10.2364 11.337 10.4998 12 10.4998C11.146 10.4998 10.364 10.8058 9.75803 11.3128C9.21592 10.9469 8.77205 10.4534 8.4655 9.87573C8.15894 9.29802 7.9991 8.6538 8.00003 7.9998Z" fill="black" fill-opacity="0.68"/>
</svg>
